# This file uses centimeters as units for non-parametric coordinates.

mtllib SM_Pizza_Topping_Bacon.mtl
g default
v -2.447701 1.129172 3.269435
v -1.345578 1.129172 3.269435
v -2.461331 1.164188 3.269435
v -1.359208 1.164188 3.269435
v -2.508543 1.371553 -3.010615
v -1.400437 1.371553 -3.010615
v -2.508543 1.336537 -3.010615
v -1.400437 1.336537 -3.010615
v -1.400163 1.466806 0.129410
v -2.560927 1.466806 0.129410
v -2.560927 1.431790 0.129410
v -1.400163 1.431790 0.129410
v -1.321401 1.162930 1.347199
v -2.639301 1.162930 1.347199
v -2.639301 1.127914 1.347199
v -1.321401 1.127914 1.347199
v -1.410258 1.364760 -1.440602
v -2.578443 1.364760 -1.440602
v -2.578443 1.329744 -1.440602
v -1.410258 1.329744 -1.440602
v -1.399857 1.434384 2.484429
v -2.528653 1.434384 2.484429
v -2.528653 1.399368 2.484429
v -1.399857 1.399368 2.484429
v -1.336452 1.205290 -2.225608
v -2.645527 1.205290 -2.225608
v -2.645527 1.170274 -2.225608
v -1.336452 1.170274 -2.225608
v -1.336452 1.233770 -0.655596
v -2.560037 1.233770 -0.655596
v -2.560037 1.198754 -0.655596
v -1.336452 1.198754 -0.655596
v -1.400163 1.474486 0.278274
v -2.560927 1.474486 0.278274
v -2.560927 1.439470 0.278274
v -1.400163 1.439470 0.278274
v -1.438477 1.159819 1.825694
v -1.438477 1.124803 1.825694
v -2.543259 1.124803 1.825694
v -2.543259 1.159819 1.825694
v -1.410258 1.440491 -1.583403
v -1.410258 1.405475 -1.583403
v -2.578443 1.405475 -1.583403
v -2.578443 1.440491 -1.583403
vt 0.375000 0.000000
vt 0.625000 0.000000
vt 0.375000 0.250000
vt 0.625000 0.250000
vt 0.375000 0.500000
vt 0.625000 0.500000
vt 0.375000 0.750000
vt 0.625000 0.750000
vt 0.375000 1.000000
vt 0.625000 1.000000
vt 0.875000 0.000000
vt 0.875000 0.250000
vt 0.125000 0.000000
vt 0.125000 0.250000
vt 0.625000 0.375000
vt 0.750000 0.250000
vt 0.250000 0.250000
vt 0.375000 0.375000
vt 0.250000 0.000000
vt 0.375000 0.875000
vt 0.625000 0.875000
vt 0.750000 0.000000
vt 0.625000 0.312500
vt 0.687500 0.250000
vt 0.312500 0.250000
vt 0.375000 0.312500
vt 0.312500 0.000000
vt 0.375000 0.937500
vt 0.625000 0.937500
vt 0.687500 0.000000
vt 0.625000 0.437500
vt 0.812500 0.250000
vt 0.187500 0.250000
vt 0.375000 0.437500
vt 0.187500 0.000000
vt 0.375000 0.812500
vt 0.625000 0.812500
vt 0.812500 0.000000
vt 0.625000 0.281250
vt 0.656250 0.250000
vt 0.343750 0.250000
vt 0.375000 0.281250
vt 0.343750 0.000000
vt 0.375000 0.968750
vt 0.625000 0.968750
vt 0.656250 0.000000
vt 0.625000 0.468750
vt 0.843750 0.250000
vt 0.156250 0.250000
vt 0.375000 0.468750
vt 0.156250 0.000000
vt 0.375000 0.781250
vt 0.625000 0.781250
vt 0.843750 0.000000
vt 0.625000 0.406250
vt 0.781250 0.250000
vt 0.218750 0.250000
vt 0.375000 0.406250
vt 0.218750 0.000000
vt 0.375000 0.843750
vt 0.625000 0.843750
vt 0.781250 0.000000
vt 0.625000 0.343750
vt 0.718750 0.250000
vt 0.281250 0.250000
vt 0.375000 0.343750
vt 0.281250 0.000000
vt 0.375000 0.906250
vt 0.625000 0.906250
vt 0.718750 0.000000
vt 0.625000 0.296875
vt 0.671875 0.250000
vt 0.625000 0.953125
vt 0.671875 0.000000
vt 0.328125 0.000000
vt 0.375000 0.953125
vt 0.328125 0.250000
vt 0.375000 0.296875
vt 0.625000 0.453125
vt 0.828125 0.250000
vt 0.625000 0.796875
vt 0.828125 0.000000
vt 0.171875 0.000000
vt 0.375000 0.796875
vt 0.171875 0.250000
vt 0.375000 0.453125
vn 0.000000 0.000000 1.000000
vn 0.000000 0.000000 1.000000
vn 0.000000 0.000000 1.000000
vn 0.000000 0.000000 1.000000
vn 0.000000 0.945557 0.325457
vn 0.000000 0.999959 0.009113
vn 0.000000 0.999877 -0.015709
vn 0.000000 0.945557 0.325457
vn 0.000000 0.000000 -1.000000
vn 0.000000 0.000000 -1.000000
vn 0.000000 0.000000 -1.000000
vn 0.000000 0.000000 -1.000000
vn 0.000000 -0.999940 -0.010997
vn 0.000000 -0.945557 -0.325457
vn 0.000000 -0.945557 -0.325457
vn 0.000000 -0.999842 0.017794
vn 0.993937 0.107686 -0.022223
vn 0.981562 0.191034 0.006404
vn 0.981563 0.191034 0.006404
vn 0.994335 0.103643 -0.023600
vn -0.981226 -0.190969 0.026938
vn -0.981227 -0.190969 0.026938
vn -0.993867 -0.107727 0.024960
vn -0.994308 -0.103604 0.024858
vn 0.000000 0.968150 -0.250372
vn 0.000000 0.967784 -0.251781
vn 0.000000 0.997843 -0.065652
vn 0.000000 0.998020 -0.062898
vn -0.999931 0.000000 0.011719
vn -1.000000 0.000000 -0.000981
vn -1.000000 0.000000 -0.000914
vn -0.999942 0.000000 0.010735
vn 0.000000 -0.998020 0.062898
vn 0.000000 -0.997843 0.065652
vn 0.000000 -0.967784 0.251781
vn 0.000000 -0.968150 0.250372
vn 0.997864 0.000000 0.065324
vn 0.997540 0.000000 0.070094
vn 0.999946 0.000000 -0.010437
vn 0.999994 0.000000 -0.003430
vn 0.000000 0.978652 0.205526
vn 0.000000 0.978301 0.207191
vn 0.000000 0.969363 0.245634
vn 0.000000 0.969364 0.245628
vn -0.997871 0.000000 -0.065216
vn -0.999719 0.000000 0.023704
vn -0.999998 0.000000 0.001820
vn -0.998023 0.000000 -0.062850
vn 0.000000 -0.969364 -0.245627
vn 0.000000 -0.969363 -0.245634
vn 0.000000 -0.978301 -0.207191
vn 0.000000 -0.978652 -0.205526
vn 0.999907 0.000000 0.013611
vn 0.999239 0.000000 0.039008
vn 0.997850 0.000000 -0.065537
vn 0.998003 0.000000 -0.063160
vn 0.000000 0.976821 -0.214056
vn 0.000000 0.998796 -0.049051
vn 0.000000 0.998267 -0.058846
vn 0.000000 0.976967 -0.213388
vn -0.998402 0.000000 -0.056511
vn -0.996461 0.000000 0.084053
vn -0.996215 0.000000 0.086924
vn -0.999051 0.000000 -0.043550
vn 0.000000 -0.998267 0.058846
vn 0.000000 -0.998796 0.049051
vn 0.000000 -0.976822 0.214056
vn 0.000000 -0.976968 0.213388
vn 0.995424 0.000000 0.095561
vn 0.995722 0.000000 0.092403
vn 0.999999 0.000000 0.001609
vn 0.999944 0.000000 0.010599
vn 0.000000 0.976870 -0.213836
vn 0.000000 0.977374 -0.211519
vn -0.994013 0.000000 0.109258
vn -0.996158 0.000000 0.087579
vn 0.000000 -0.976870 0.213836
vn 0.000000 -0.977374 0.211519
vn 0.998595 0.000000 0.052997
vn 0.995939 0.000000 0.090029
vn 0.000000 0.978298 0.207202
vn 0.000000 0.978298 0.207202
vn -0.985114 0.000000 -0.171903
vn -0.985114 0.000000 -0.171903
vn 0.000000 -0.978298 -0.207202
vn 0.000000 -0.978298 -0.207202
vn 0.996695 0.000000 -0.081239
vn 0.996695 0.000000 -0.081239
vn 0.000000 0.976830 0.214019
vn 0.000000 0.976150 0.217096
vn -0.999778 0.000000 0.021052
vn -0.999829 0.000000 0.018511
vn 0.000000 -0.976150 -0.217096
vn 0.000000 -0.976830 -0.214019
vn 0.996455 0.000000 -0.084133
vn 0.997255 0.000000 -0.074044
s off
g pCube79
usemtl initialShadingGroup
f 2/2/1 4/4/2 3/3/3 1/1/4
s 1
f 4/4/5 21/39/6 22/42/7 3/3/8
s off
f 6/6/9 8/8/10 7/7/11 5/5/12
s 2
f 24/45/13 2/10/14 1/9/15 23/44/16
s 3
f 21/40/17 4/4/18 2/2/19 24/46/20
s 4
f 1/1/21 3/3/22 22/41/23 23/43/24
s 1
f 10/18/25 9/15/26 29/55/27 30/58/28
s 4
f 31/59/29 11/19/30 10/17/31 30/57/32
s 2
f 31/60/33 32/61/34 12/21/35 11/20/36
s 3
f 9/16/37 12/22/38 32/62/39 29/56/40
s 1
f 14/26/41 13/23/42 33/63/43 34/66/44
s 4
f 35/67/45 15/27/46 14/25/47 34/65/48
s 2
f 35/68/49 36/69/50 16/29/51 15/28/52
s 3
f 13/24/53 16/30/54 36/70/55 33/64/56
s 1
f 41/79/57 25/47/58 26/50/59 44/86/60
s 4
f 27/51/61 43/83/62 44/85/63 26/49/64
s 2
f 27/52/65 28/53/66 42/81/67 43/84/68
s 3
f 41/80/69 42/82/70 28/54/71 25/48/72
s 1
f 37/71/73 13/23/42 14/26/41 40/78/74
s 4
f 15/27/46 39/75/75 40/77/76 14/25/47
s 2
f 15/28/52 16/29/51 38/73/77 39/76/78
s 3
f 37/72/79 38/74/80 16/30/54 13/24/53
s 1
f 25/47/58 6/6/81 5/5/82 26/50/59
s 4
f 27/51/61 26/49/64 5/14/83 7/13/84
s 2
f 8/8/85 28/53/66 27/52/65 7/7/86
s 3
f 6/12/87 25/48/72 28/54/71 8/11/88
s 1
f 29/55/27 17/31/89 18/34/90 30/58/28
s 4
f 19/35/91 31/59/29 30/57/32 18/33/92
s 2
f 19/36/93 20/37/94 32/61/34 31/60/33
s 3
f 29/56/40 32/62/39 20/38/95 17/32/96
s 1
f 33/63/43 9/15/26 10/18/25 34/66/44
s 4
f 11/19/30 35/67/45 34/65/48 10/17/31
s 2
f 11/20/36 12/21/35 36/69/50 35/68/49
s 3
f 33/64/56 36/70/55 12/22/38 9/16/37
s 1
f 22/42/7 21/39/6 37/71/73 40/78/74
s 3
f 21/40/17 24/46/20 38/74/80 37/72/79
s 2
f 38/73/77 24/45/13 23/44/16 39/76/78
s 4
f 40/77/76 39/75/75 23/43/24 22/41/23
s 1
f 18/34/90 17/31/89 41/79/57 44/86/60
s 3
f 17/32/96 20/38/95 42/82/70 41/80/69
s 2
f 42/81/67 20/37/94 19/36/93 43/84/68
s 4
f 44/85/63 43/83/62 19/35/91 18/33/92
