# This file uses centimeters as units for non-parametric coordinates.

mtllib SM_Pizza_Topping_Whole_Chilli.mtl
g default
v 2.112642 1.870960 -3.644160
v 2.112642 1.532112 -3.784516
v 2.112642 1.193264 -3.644160
v 2.112642 1.052908 -3.305313
v 2.112642 1.193264 -2.966465
v 2.112642 1.532112 -2.826109
v 2.112642 1.870960 -2.966465
v 2.112642 2.011316 -3.305313
v 1.267585 1.904787 -3.690063
v 1.267585 1.520036 -3.849432
v 1.267585 1.135285 -3.690063
v 1.267585 0.975917 -3.305313
v 1.267585 1.135285 -2.920562
v 1.267585 1.520036 -2.761193
v 1.267585 1.904787 -2.920562
v 1.267585 2.064156 -3.305313
v 0.422528 1.757775 -3.581247
v 0.422528 1.481841 -3.695543
v 0.422528 1.205907 -3.581247
v 0.422528 1.091611 -3.305313
v 0.422528 1.205907 -3.029378
v 0.422528 1.481841 -2.915082
v 0.422528 1.757775 -3.029378
v 0.422528 1.872071 -3.305313
v -0.422528 1.624692 -3.489130
v -0.422528 1.440875 -3.565270
v -0.422528 1.257057 -3.489130
v -0.422528 1.180918 -3.305313
v -0.422528 1.257057 -3.121495
v -0.422528 1.440875 -3.045355
v -0.422528 1.624692 -3.121495
v -0.422528 1.700832 -3.305313
v -1.267585 1.565284 -3.373853
v -1.267585 1.496743 -3.402243
v -1.267585 1.428203 -3.373853
v -1.267585 1.399812 -3.305313
v -1.267585 1.428203 -3.236772
v -1.267585 1.496743 -3.208382
v -1.267585 1.565284 -3.236772
v -1.267585 1.593675 -3.305313
v -1.390854 1.532112 -3.305313
v 1.690114 1.904673 -2.926714
v 1.690113 1.526074 -2.769892
v 1.690114 1.147475 -2.926714
v 1.690114 0.990654 -3.305313
v 1.690114 1.147475 -3.683911
v 1.690113 1.526074 -3.840732
v 1.690114 1.904673 -3.683911
v 1.690114 2.061494 -3.305313
v 2.335106 1.713212 -3.305313
v 2.335106 1.660169 -3.433369
v 2.335106 1.660169 -3.177256
v 2.335106 1.532112 -3.124213
v 2.335106 1.404055 -3.177256
v 2.335105 1.351012 -3.305313
v 2.335106 1.404055 -3.433369
v 2.335106 1.532112 -3.486413
v 3.200774 1.580356 -3.305313
v 3.200774 1.566226 -3.339426
v 3.200774 1.566226 -3.271199
v 3.200774 1.532112 -3.257069
v 3.200774 1.497999 -3.271199
v 3.200774 1.483868 -3.305313
v 3.200774 1.497999 -3.339426
v 3.200774 1.532112 -3.353556
v 2.830701 1.580087 -3.257337
v 2.830701 1.599960 -3.305313
v 2.830701 1.580087 -3.353288
v 2.830701 1.532112 -3.373160
v 2.830701 1.484136 -3.353288
v 2.830701 1.464265 -3.305313
v 2.830701 1.484136 -3.257337
v 2.830701 1.532112 -3.237465
v 3.015738 1.575245 -3.262180
v 3.015738 1.593111 -3.305313
v 3.015738 1.575245 -3.348445
v 3.015738 1.532112 -3.366312
v 3.015738 1.488979 -3.348445
v 3.015738 1.471113 -3.305313
v 3.015738 1.488979 -3.262180
v 3.015738 1.532112 -3.244313
v 2.520142 1.599143 -3.238282
v 2.520142 1.626907 -3.305313
v 2.520142 1.599143 -3.372343
v 2.520142 1.532112 -3.400108
v 2.520142 1.465081 -3.372343
v 2.520142 1.437316 -3.305313
v 2.520142 1.465081 -3.238282
v 2.520142 1.532112 -3.210517
vt 0.676777 0.073223
vt 0.500000 0.000000
vt 0.323223 0.073223
vt 0.250000 0.250000
vt 0.323223 0.426777
vt 0.500000 0.500000
vt 0.676777 0.426777
vt 0.750000 0.250000
vt 0.250000 0.500000
vt 0.312500 0.500000
vt 0.375000 0.500000
vt 0.437500 0.500000
vt 0.500000 0.500000
vt 0.562500 0.500000
vt 0.625000 0.500000
vt 0.687500 0.500000
vt 0.750000 0.500000
vt 0.300000 0.600000
vt 0.350000 0.600000
vt 0.400000 0.600000
vt 0.450000 0.600000
vt 0.500000 0.600000
vt 0.550000 0.600000
vt 0.600000 0.600000
vt 0.650000 0.600000
vt 0.700000 0.600000
vt 0.350000 0.700000
vt 0.387500 0.700000
vt 0.425000 0.700000
vt 0.462500 0.700000
vt 0.500000 0.700000
vt 0.537500 0.700000
vt 0.575000 0.700000
vt 0.612500 0.700000
vt 0.650000 0.700000
vt 0.400000 0.800000
vt 0.425000 0.800000
vt 0.450000 0.800000
vt 0.475000 0.800000
vt 0.500000 0.800000
vt 0.525000 0.800000
vt 0.550000 0.800000
vt 0.575000 0.800000
vt 0.600000 0.800000
vt 0.450000 0.900000
vt 0.462500 0.900000
vt 0.475000 0.900000
vt 0.487500 0.900000
vt 0.500000 0.900000
vt 0.512500 0.900000
vt 0.525000 0.900000
vt 0.537500 0.900000
vt 0.550000 0.900000
vt 0.500000 1.000000
vt 0.612500 0.550000
vt 0.556250 0.550000
vt 0.500000 0.550000
vt 0.443750 0.550000
vt 0.387500 0.550000
vt 0.331250 0.550000
vt 0.725000 0.550000
vt 0.275000 0.550000
vt 0.668750 0.550000
vt 0.676777 0.073223
vt 0.750000 0.250000
vt 0.676777 0.426777
vt 0.500000 0.500000
vt 0.323223 0.426777
vt 0.250000 0.250000
vt 0.323223 0.073223
vt 0.500000 0.000000
vt 0.676777 0.073223
vt 0.750000 0.250000
vt 0.676777 0.426777
vt 0.500000 0.500000
vt 0.323223 0.426777
vt 0.250000 0.250000
vt 0.323223 0.073223
vt 0.500000 0.000000
vt 0.676777 0.426777
vt 0.750000 0.250000
vt 0.676777 0.073223
vt 0.500000 0.000000
vt 0.323223 0.073223
vt 0.250000 0.250000
vt 0.323223 0.426777
vt 0.500000 0.500000
vt 0.676777 0.426777
vt 0.750000 0.250000
vt 0.676777 0.073223
vt 0.500000 0.000000
vt 0.323223 0.073223
vt 0.250000 0.250000
vt 0.323223 0.426777
vt 0.500000 0.500000
vt 0.676777 0.426777
vt 0.750000 0.250000
vt 0.676777 0.073223
vt 0.500000 0.000000
vt 0.323223 0.073223
vt 0.250000 0.250000
vt 0.323223 0.426777
vt 0.500000 0.500000
vn 0.122000 0.703489 -0.700156
vn 0.131837 0.003318 -0.991266
vn 0.073815 0.000121 -0.997272
vn 0.063920 0.705720 -0.705601
vn 0.141683 -0.698320 -0.701623
vn 0.083689 -0.704564 -0.704688
vn 0.145764 -0.989320 -0.000000
vn 0.087773 -0.996141 -0.000000
vn 0.141684 -0.698321 0.701622
vn 0.083689 -0.704565 0.704687
vn 0.131839 0.003318 0.991266
vn 0.073815 0.000121 0.997272
vn 0.122001 0.703490 0.700156
vn 0.063920 0.705721 0.705601
vn 0.117928 0.993022 0.000000
vn 0.059817 0.998209 0.000000
vn -0.128309 0.704113 -0.698399
vn -0.105715 0.005741 -0.994380
vn -0.168670 -0.001565 -0.985671
vn -0.199988 0.692049 -0.693594
vn -0.082559 -0.701805 -0.707569
vn -0.136871 -0.701244 -0.699659
vn -0.072808 -0.997346 0.000000
vn -0.123579 -0.992335 -0.000000
vn -0.082559 -0.701805 0.707569
vn -0.136870 -0.701244 0.699659
vn -0.105716 0.005741 0.994380
vn -0.168670 -0.001565 0.985671
vn -0.128309 0.704114 0.698399
vn -0.199988 0.692050 0.693594
vn -0.137497 0.990502 0.000000
vn -0.212798 0.977096 0.000000
vn -0.164864 -0.012874 -0.986232
vn -0.171635 0.690208 -0.702961
vn -0.157959 -0.704698 -0.691701
vn -0.155065 -0.987904 0.000000
vn -0.157959 -0.704698 0.691701
vn -0.164865 -0.012874 0.986232
vn -0.171635 0.690208 0.702961
vn -0.174394 0.984676 0.000000
vn -0.206443 0.012351 -0.978381
vn -0.158172 0.704423 -0.691932
vn -0.253424 -0.677922 -0.690071
vn -0.272482 -0.962161 0.000000
vn -0.253425 -0.677922 0.690071
vn -0.206442 0.012351 0.978381
vn -0.158171 0.704423 0.691932
vn -0.137812 0.990458 -0.000001
vn 1.000000 0.000001 0.000000
vn 1.000000 0.000001 0.000000
vn 1.000000 0.000001 0.000000
vn 1.000000 0.000001 0.000000
vn 1.000000 0.000001 0.000000
vn 1.000000 0.000001 0.000000
vn 1.000000 0.000001 0.000000
vn 1.000000 0.000001 0.000000
vn -0.524901 0.325723 -0.786374
vn -0.641516 -0.293560 -0.708717
vn -0.704108 -0.656039 -0.271744
vn -0.704105 -0.656042 0.271744
vn -0.641523 -0.293555 0.708713
vn -0.524903 0.325722 0.786373
vn -0.418957 0.838888 0.347479
vn -0.418959 0.838887 -0.347480
vn 0.777920 0.580532 -0.240465
vn 0.777920 0.580532 -0.240465
vn 0.777920 0.580532 -0.240465
vn 0.777920 0.580532 -0.240465
vn 0.777920 0.580532 0.240465
vn 0.777920 0.580531 0.240465
vn 0.777920 0.580531 0.240465
vn 0.777920 0.580531 0.240465
vn 0.777919 0.240466 0.580533
vn 0.777919 0.240466 0.580533
vn 0.777919 0.240466 0.580533
vn 0.777919 0.240466 0.580533
vn 0.777919 -0.240466 0.580532
vn 0.777919 -0.240466 0.580532
vn 0.777919 -0.240466 0.580532
vn 0.777919 -0.240466 0.580532
vn 0.777920 -0.580532 0.240464
vn 0.777920 -0.580532 0.240464
vn 0.777920 -0.580532 0.240464
vn 0.777920 -0.580532 0.240464
vn 0.777919 -0.580533 -0.240465
vn 0.777919 -0.580533 -0.240465
vn 0.777919 -0.580533 -0.240465
vn 0.777919 -0.580533 -0.240465
vn 0.777920 -0.240465 -0.580532
vn 0.777920 -0.240465 -0.580532
vn 0.777920 -0.240465 -0.580532
vn 0.777919 -0.240465 -0.580532
vn 0.777919 0.240466 -0.580532
vn 0.777919 0.240466 -0.580532
vn 0.777919 0.240466 -0.580532
vn 0.777919 0.240466 -0.580532
vn 0.395736 0.848458 -0.351444
vn 0.395736 0.848458 -0.351444
vn 0.257923 0.892620 -0.369737
vn 0.257923 0.892620 -0.369737
vn 0.395735 0.848458 0.351443
vn 0.395735 0.848458 0.351443
vn 0.257922 0.892621 0.369735
vn 0.257922 0.892621 0.369735
vn 0.395734 0.351446 0.848458
vn 0.395734 0.351446 0.848457
vn 0.257921 0.369738 0.892620
vn 0.257921 0.369738 0.892620
vn 0.395735 -0.351446 0.848457
vn 0.395735 -0.351446 0.848457
vn 0.257922 -0.369739 0.892619
vn 0.257922 -0.369739 0.892620
vn 0.395734 -0.848459 0.351444
vn 0.395734 -0.848459 0.351444
vn 0.257922 -0.892621 0.369735
vn 0.257922 -0.892621 0.369735
vn 0.395736 -0.848458 -0.351444
vn 0.395736 -0.848458 -0.351444
vn 0.257923 -0.892620 -0.369736
vn 0.257923 -0.892620 -0.369736
vn 0.395737 -0.351446 -0.848456
vn 0.395737 -0.351446 -0.848456
vn 0.257923 -0.369739 -0.892619
vn 0.257924 -0.369739 -0.892619
vn 0.395736 0.351445 -0.848457
vn 0.395736 0.351445 -0.848457
vn 0.257923 0.369738 -0.892620
vn 0.257923 0.369738 -0.892620
vn 0.065582 0.921890 0.381860
vn 0.065582 0.921890 0.381860
vn 0.047483 0.922838 0.382251
vn 0.047483 0.922838 0.382251
vn 0.065582 0.921890 -0.381862
vn 0.065582 0.921890 -0.381862
vn 0.047484 0.922837 -0.382253
vn 0.047484 0.922837 -0.382253
vn 0.065583 0.381862 -0.921889
vn 0.065583 0.381862 -0.921889
vn 0.047483 0.382258 -0.922835
vn 0.047483 0.382258 -0.922835
vn 0.065583 -0.381864 -0.921889
vn 0.065583 -0.381864 -0.921889
vn 0.047484 -0.382259 -0.922834
vn 0.047484 -0.382259 -0.922834
vn 0.065583 -0.921891 -0.381858
vn 0.065583 -0.921891 -0.381858
vn 0.047484 -0.922836 -0.382254
vn 0.047484 -0.922836 -0.382254
vn 0.065583 -0.921892 0.381856
vn 0.065583 -0.921892 0.381856
vn 0.047484 -0.922837 0.382252
vn 0.047484 -0.922837 0.382252
vn 0.065582 -0.381864 0.921889
vn 0.065582 -0.381864 0.921889
vn 0.047485 -0.382259 0.922834
vn 0.047485 -0.382259 0.922834
vn 0.065582 0.381862 0.921889
vn 0.065582 0.381862 0.921889
vn 0.047484 0.382258 0.922835
vn 0.047484 0.382258 0.922835
vn 0.063557 0.922014 0.381905
vn 0.063557 0.922013 0.381905
vn 0.063557 0.922012 -0.381908
vn 0.063557 0.922013 -0.381908
vn 0.063557 0.381917 -0.922009
vn 0.063557 0.381918 -0.922009
vn 0.063557 -0.381919 -0.922008
vn 0.063557 -0.381919 -0.922008
vn 0.063556 -0.922008 -0.381918
vn 0.063556 -0.922008 -0.381918
vn 0.063557 -0.922009 0.381916
vn 0.063557 -0.922009 0.381916
vn 0.063558 -0.381919 0.922008
vn 0.063558 -0.381919 0.922008
vn 0.063557 0.381917 0.922009
vn 0.063557 0.381917 0.922009
s 1
g pCone1
usemtl initialShadingGroup
f 1/9/1 2/10/2 47/60/3 48/62/4
f 2/10/2 3/11/5 46/59/6 47/60/3
f 3/11/5 4/12/7 45/58/8 46/59/6
f 4/12/7 5/13/9 44/57/10 45/58/8
f 5/13/9 6/14/11 43/56/12 44/57/10
f 6/14/11 7/15/13 42/55/14 43/56/12
f 7/15/13 8/16/15 49/63/16 42/55/14
f 8/16/15 1/17/1 48/61/4 49/63/16
f 9/18/17 10/19/18 18/28/19 17/27/20
f 10/19/18 11/20/21 19/29/22 18/28/19
f 11/20/21 12/21/23 20/30/24 19/29/22
f 12/21/23 13/22/25 21/31/26 20/30/24
f 13/22/25 14/23/27 22/32/28 21/31/26
f 14/23/27 15/24/29 23/33/30 22/32/28
f 15/24/29 16/25/31 24/34/32 23/33/30
f 16/25/31 9/26/17 17/35/20 24/34/32
f 17/27/20 18/28/19 26/37/33 25/36/34
f 18/28/19 19/29/22 27/38/35 26/37/33
f 19/29/22 20/30/24 28/39/36 27/38/35
f 20/30/24 21/31/26 29/40/37 28/39/36
f 21/31/26 22/32/28 30/41/38 29/40/37
f 22/32/28 23/33/30 31/42/39 30/41/38
f 23/33/30 24/34/32 32/43/40 31/42/39
f 24/34/32 17/35/20 25/44/34 32/43/40
f 25/36/34 26/37/33 34/46/41 33/45/42
f 26/37/33 27/38/35 35/47/43 34/46/41
f 27/38/35 28/39/36 36/48/44 35/47/43
f 28/39/36 29/40/37 37/49/45 36/48/44
f 29/40/37 30/41/38 38/50/46 37/49/45
f 30/41/38 31/42/39 39/51/47 38/50/46
f 31/42/39 32/43/40 40/52/48 39/51/47
f 32/43/40 25/44/34 33/53/42 40/52/48
s off
f 59/72/49 58/73/50 60/74/51 61/75/52 62/76/53 63/77/54 64/78/55 65/79/56
s 1
f 33/45/42 34/46/41 41/54/57
f 34/46/41 35/47/43 41/54/58
f 35/47/43 36/48/44 41/54/59
f 36/48/44 37/49/45 41/54/60
f 37/49/45 38/50/46 41/54/61
f 38/50/46 39/51/47 41/54/62
f 39/51/47 40/52/48 41/54/63
f 40/52/48 33/53/42 41/54/64
f 43/56/12 42/55/14 15/24/29 14/23/27
f 44/57/10 43/56/12 14/23/27 13/22/25
f 45/58/8 44/57/10 13/22/25 12/21/23
f 46/59/6 45/58/8 12/21/23 11/20/21
f 47/60/3 46/59/6 11/20/21 10/19/18
f 48/62/4 47/60/3 10/19/18 9/18/17
f 49/63/16 48/61/4 9/26/17 16/25/31
f 42/55/14 49/63/16 16/25/31 15/24/29
s off
f 1/1/65 8/8/66 50/65/67 51/64/68
f 8/8/69 7/7/70 52/66/71 50/65/72
f 7/7/73 6/6/74 53/67/75 52/66/76
f 6/6/77 5/5/78 54/68/79 53/67/80
f 5/5/81 4/4/82 55/69/83 54/68/84
f 4/4/85 3/3/86 56/70/87 55/69/88
f 3/3/89 2/2/90 57/71/91 56/70/92
f 2/2/93 1/1/94 51/64/95 57/71/96
s 2
f 51/64/97 50/65/98 83/97/99 84/98/100
s 3
f 50/65/101 52/66/102 82/96/103 83/97/104
s 4
f 52/66/105 53/67/106 89/103/107 82/96/108
s 5
f 53/67/109 54/68/110 88/102/111 89/103/112
s 6
f 54/68/113 55/69/114 87/101/115 88/102/116
s 7
f 55/69/117 56/70/118 86/100/119 87/101/120
s 8
f 56/70/121 57/71/122 85/99/123 86/100/124
s 9
f 57/71/125 51/64/126 84/98/127 85/99/128
s 3
f 67/81/129 66/80/130 74/88/131 75/89/132
s 2
f 68/82/133 67/81/134 75/89/135 76/90/136
s 9
f 69/83/137 68/82/138 76/90/139 77/91/140
s 8
f 70/84/141 69/83/142 77/91/143 78/92/144
s 7
f 71/85/145 70/84/146 78/92/147 79/93/148
s 6
f 72/86/149 71/85/150 79/93/151 80/94/152
s 5
f 73/87/153 72/86/154 80/94/155 81/95/156
s 4
f 66/80/157 73/87/158 81/95/159 74/88/160
s 3
f 75/89/132 74/88/131 60/74/161 58/73/162
s 2
f 76/90/136 75/89/135 58/73/163 59/72/164
s 9
f 77/91/140 76/90/139 59/72/165 65/79/166
s 8
f 78/92/144 77/91/143 65/79/167 64/78/168
s 7
f 79/93/148 78/92/147 64/78/169 63/77/170
s 6
f 80/94/152 79/93/151 63/77/171 62/76/172
s 5
f 81/95/156 80/94/155 62/76/173 61/75/174
s 4
f 74/88/160 81/95/159 61/75/175 60/74/176
s 3
f 83/97/104 82/96/103 66/80/130 67/81/129
s 2
f 84/98/100 83/97/99 67/81/134 68/82/133
s 9
f 85/99/128 84/98/127 68/82/138 69/83/137
s 8
f 86/100/124 85/99/123 69/83/142 70/84/141
s 7
f 87/101/120 86/100/119 70/84/146 71/85/145
s 6
f 88/102/116 87/101/115 71/85/150 72/86/149
s 5
f 89/103/112 88/102/111 72/86/154 73/87/153
s 4
f 82/96/108 89/103/107 73/87/158 66/80/157
