# This file uses centimeters as units for non-parametric coordinates.

mtllib SM_Pizza_Topping_Pineapple.mtl
g default
v 0.983175 1.124942 -1.065861
v 1.483175 1.124942 -1.065861
v 0.983175 1.594059 -1.065861
v 1.483175 1.594059 -1.065861
v 0.733175 1.594059 -2.065861
v 1.733175 1.594059 -2.065861
v 0.733175 1.124942 -2.065861
v 1.733175 1.124942 -2.065861
v 1.233175 1.594059 -1.065861
v 1.233175 1.594059 -2.065861
v 1.233175 1.124942 -2.065861
v 1.233175 1.124942 -1.065861
v 0.983175 1.594059 -2.065861
v 0.983175 1.124942 -2.065861
v 1.483175 1.594059 -2.065861
v 1.483175 1.124942 -2.065861
vt 0.440439 0.002982
vt 0.559561 0.002982
vt 0.458314 0.270825
vt 0.541686 0.270825
vt 0.375000 0.500000
vt 0.625000 0.500000
vt 0.375000 0.750000
vt 0.625000 0.750000
vt 0.437475 0.999991
vt 0.562525 0.999991
vt 0.875000 0.000000
vt 0.875000 0.250000
vt 0.125000 0.000000
vt 0.125000 0.250000
vt 0.500000 0.250000
vt 0.500000 0.500000
vt 0.500000 0.750000
vt 0.500000 0.000000
vt 0.500000 1.000000
vt 0.437500 0.500000
vt 0.437500 0.750000
vt 0.562500 0.500000
vt 0.562500 0.750000
vn 0.000000 1.000000 0.000000
vn 0.000000 1.000000 0.000000
vn 0.000000 1.000000 0.000000
vn 0.000000 0.000000 -1.000000
vn 0.000000 0.000000 -1.000000
vn 0.000000 0.000000 -1.000000
vn 0.000000 0.000000 -1.000000
vn 0.000000 -1.000000 0.000000
vn 0.000000 -1.000000 0.000000
vn 0.000000 -1.000000 0.000000
vn 0.970143 0.000000 0.242536
vn 0.970143 0.000000 0.242536
vn 0.970143 0.000000 0.242536
vn 0.970143 0.000000 0.242536
vn -0.970143 0.000000 0.242536
vn -0.970143 0.000000 0.242536
vn -0.970143 0.000000 0.242536
vn -0.970143 0.000000 0.242536
vn 0.000000 1.000000 0.000000
vn 0.000000 1.000000 0.000000
vn 0.000000 1.000000 0.000000
vn 0.000000 1.000000 0.000000
vn 0.000000 0.000000 -1.000000
vn 0.000000 0.000000 -1.000000
vn 0.000000 0.000000 -1.000000
vn 0.000000 0.000000 -1.000000
vn 0.000000 -1.000000 0.000000
vn 0.000000 -1.000000 0.000000
vn 0.000000 -1.000000 0.000000
vn 0.000000 -1.000000 0.000000
vn 0.000000 0.000000 1.000000
vn 0.000000 0.000000 1.000000
vn 0.000000 0.000000 1.000000
vn 0.000000 0.000000 1.000000
vn 0.000000 0.000000 1.000000
vn 0.000000 0.000000 1.000000
vn 0.000000 1.000000 0.000000
vn 0.000000 0.000000 -1.000000
vn 0.000000 0.000000 -1.000000
vn 0.000000 -1.000000 0.000000
s 1
g pCube80
usemtl initialShadingGroup
f 3/3/1 13/20/2 5/5/3
s 2
f 5/5/4 13/20/5 14/21/6 7/7/7
s 3
f 7/7/8 14/21/9 1/9/10
s off
f 2/2/11 8/11/12 6/12/13 4/4/14
f 7/13/15 1/1/16 3/3/17 5/14/18
s 1
f 9/15/19 4/4/20 15/22/21 10/16/22
s 2
f 11/17/23 10/16/24 15/22/25 16/23/26
s 3
f 12/19/27 11/17/28 16/23/29 2/10/30
s 5
f 9/15/31 12/18/32 2/2/33 4/4/34
s 1
f 3/3/1 9/15/19 10/16/22 13/20/2
s 2
f 14/21/6 13/20/5 10/16/24 11/17/23
s 3
f 1/9/10 14/21/9 11/17/28 12/19/27
s 5
f 3/3/35 1/1/36 12/18/32 9/15/31
s 1
f 4/4/20 6/6/37 15/22/21
s 2
f 16/23/26 15/22/25 6/6/38 8/8/39
s 3
f 2/10/30 16/23/29 8/8/40
